<?xml version="1.0" standalone="no"?>
<!DOCTYPE svg PUBLIC "-//W3C//DTD SVG 20010904//EN"
 "http://www.w3.org/TR/2001/REC-SVG-20010904/DTD/svg10.dtd">
<svg version="1.0" xmlns="http://www.w3.org/2000/svg"
 width="200.000000pt" height="200.000000pt" viewBox="0 0 200.000000 200.000000"
 preserveAspectRatio="xMidYMid meet">
<metadata>
Created by potrace 1.14, written by Peter Selinger 2001-2017
</metadata>
<g transform="translate(0.000000,200.000000) scale(0.100000,-0.100000)"
fill="#000000" stroke="none">
<path d="M280 1315 c0 -305 3 -555 8 -556 10 -1 195 -1 210 0 9 1 12 55 12
234 0 205 3 237 19 273 48 106 213 121 262 24 9 -18 13 -98 14 -273 1 -163 6
-251 12 -255 6 -4 81 -6 167 -6 86 1 156 -1 157 -5 0 -3 2 -96 4 -206 3 -213
9 -246 52 -304 40 -52 61 -68 123 -89 127 -43 265 -16 353 69 l48 47 -36 71
-36 72 -26 -31 c-69 -82 -188 -85 -231 -5 -13 24 -17 64 -17 202 -1 117 2 173
9 174 6 1 74 2 151 3 l140 1 1 88 1 87 -152 0 -151 0 0 126 c1 69 -1 127 -4
129 -3 2 -32 -3 -65 -11 -33 -7 -76 -16 -95 -19 -69 -11 -66 -6 -65 -111 0
-52 -2 -100 -6 -105 -3 -6 -28 -9 -55 -7 l-49 3 0 215 c-1 243 -9 276 -78 337
-37 33 -118 63 -168 63 -95 0 -197 -50 -249 -121 l-30 -42 0 241 0 242 -115 0
-115 0 0 -555z"/>
</g>
</svg>
